<mxfile host="Electron" modified="2024-06-17T03:55:03.190Z" agent="Mozilla/5.0 (Macintosh; Intel Mac OS X 10_15_7) AppleWebKit/537.36 (KHTML, like Gecko) draw.io/24.4.0 Chrome/120.0.6099.109 Electron/28.1.0 Safari/537.36" etag="jwjW_j8zS_pQTZLkK9Jm" version="24.4.0" type="device">
  <diagram name="Page-1" id="NevHYtHOWBmqp2Ai-fHn">
    <mxGraphModel dx="2540" dy="1012" grid="1" gridSize="10" guides="1" tooltips="1" connect="1" arrows="1" fold="1" page="1" pageScale="1" pageWidth="850" pageHeight="1100" math="0" shadow="0">
      <root>
        <mxCell id="0" />
        <mxCell id="1" parent="0" />
        <mxCell id="ato9lWBI0SY_mpVEOnEu-13" value="" style="rounded=0;whiteSpace=wrap;html=1;" vertex="1" parent="1">
          <mxGeometry x="-90" y="100" width="1420" height="590" as="geometry" />
        </mxCell>
        <mxCell id="ato9lWBI0SY_mpVEOnEu-2" style="edgeStyle=orthogonalEdgeStyle;rounded=0;orthogonalLoop=1;jettySize=auto;html=1;" edge="1" parent="1" source="EjC6SbWx9mVg9-u-MXKE-1" target="ato9lWBI0SY_mpVEOnEu-1">
          <mxGeometry relative="1" as="geometry" />
        </mxCell>
        <mxCell id="EjC6SbWx9mVg9-u-MXKE-4" style="edgeStyle=orthogonalEdgeStyle;rounded=0;orthogonalLoop=1;jettySize=auto;html=1;exitX=1;exitY=0.5;exitDx=0;exitDy=0;exitPerimeter=0;" parent="1" source="ato9lWBI0SY_mpVEOnEu-10" target="EjC6SbWx9mVg9-u-MXKE-3" edge="1">
          <mxGeometry relative="1" as="geometry">
            <mxPoint x="138" y="359" as="sourcePoint" />
          </mxGeometry>
        </mxCell>
        <mxCell id="EjC6SbWx9mVg9-u-MXKE-5" style="edgeStyle=orthogonalEdgeStyle;rounded=0;orthogonalLoop=1;jettySize=auto;html=1;" parent="1" source="EjC6SbWx9mVg9-u-MXKE-3" target="EjC6SbWx9mVg9-u-MXKE-1" edge="1">
          <mxGeometry relative="1" as="geometry" />
        </mxCell>
        <mxCell id="EjC6SbWx9mVg9-u-MXKE-6" value="&lt;pre class=&quot;programlisting&quot;&gt;&lt;code class=&quot;bash hljs&quot; tabindex=&quot;0&quot;&gt;&lt;font style=&quot;font-size: 13px;&quot;&gt;invoke_agent&lt;/font&gt;&lt;/code&gt;&lt;/pre&gt;" style="edgeLabel;html=1;align=center;verticalAlign=middle;resizable=0;points=[];labelBackgroundColor=none;" parent="EjC6SbWx9mVg9-u-MXKE-5" vertex="1" connectable="0">
          <mxGeometry x="-0.3026" y="1" relative="1" as="geometry">
            <mxPoint x="30" y="-13" as="offset" />
          </mxGeometry>
        </mxCell>
        <mxCell id="EjC6SbWx9mVg9-u-MXKE-3" value="Lambda Function" style="sketch=0;points=[[0,0,0],[0.25,0,0],[0.5,0,0],[0.75,0,0],[1,0,0],[0,1,0],[0.25,1,0],[0.5,1,0],[0.75,1,0],[1,1,0],[0,0.25,0],[0,0.5,0],[0,0.75,0],[1,0.25,0],[1,0.5,0],[1,0.75,0]];outlineConnect=0;fontColor=#232F3E;fillColor=#ED7100;strokeColor=#ffffff;dashed=0;verticalLabelPosition=bottom;verticalAlign=top;align=center;html=1;fontSize=14;fontStyle=0;aspect=fixed;shape=mxgraph.aws4.resourceIcon;resIcon=mxgraph.aws4.lambda;" parent="1" vertex="1">
          <mxGeometry x="320" y="320" width="78" height="78" as="geometry" />
        </mxCell>
        <mxCell id="ato9lWBI0SY_mpVEOnEu-1" value="Foundation Model&lt;div style=&quot;font-size: 14px;&quot;&gt;(Claude3 Haiku)&lt;/div&gt;" style="sketch=0;points=[[0,0,0],[0.25,0,0],[0.5,0,0],[0.75,0,0],[1,0,0],[0,1,0],[0.25,1,0],[0.5,1,0],[0.75,1,0],[1,1,0],[0,0.25,0],[0,0.5,0],[0,0.75,0],[1,0.25,0],[1,0.5,0],[1,0.75,0]];outlineConnect=0;fontColor=#232F3E;fillColor=#01A88D;strokeColor=#ffffff;dashed=0;verticalLabelPosition=bottom;verticalAlign=top;align=center;html=1;fontSize=14;fontStyle=0;aspect=fixed;shape=mxgraph.aws4.resourceIcon;resIcon=mxgraph.aws4.machine_learning;" vertex="1" parent="1">
          <mxGeometry x="540" y="500" width="78" height="78" as="geometry" />
        </mxCell>
        <mxCell id="ato9lWBI0SY_mpVEOnEu-8" style="edgeStyle=orthogonalEdgeStyle;rounded=0;orthogonalLoop=1;jettySize=auto;html=1;" edge="1" parent="1" source="ato9lWBI0SY_mpVEOnEu-5" target="ato9lWBI0SY_mpVEOnEu-7">
          <mxGeometry relative="1" as="geometry" />
        </mxCell>
        <mxCell id="ato9lWBI0SY_mpVEOnEu-5" value="Lambda&amp;nbsp;&lt;span style=&quot;background-color: initial; font-size: 14px;&quot;&gt;Function&lt;/span&gt;" style="sketch=0;points=[[0,0,0],[0.25,0,0],[0.5,0,0],[0.75,0,0],[1,0,0],[0,1,0],[0.25,1,0],[0.5,1,0],[0.75,1,0],[1,1,0],[0,0.25,0],[0,0.5,0],[0,0.75,0],[1,0.25,0],[1,0.5,0],[1,0.75,0]];outlineConnect=0;fontColor=#232F3E;fillColor=#ED7100;strokeColor=#ffffff;dashed=0;verticalLabelPosition=bottom;verticalAlign=top;align=center;html=1;fontSize=14;fontStyle=0;aspect=fixed;shape=mxgraph.aws4.resourceIcon;resIcon=mxgraph.aws4.lambda;" vertex="1" parent="1">
          <mxGeometry x="960" y="320" width="78" height="78" as="geometry" />
        </mxCell>
        <mxCell id="ato9lWBI0SY_mpVEOnEu-6" style="edgeStyle=orthogonalEdgeStyle;rounded=0;orthogonalLoop=1;jettySize=auto;html=1;entryX=0;entryY=0.5;entryDx=0;entryDy=0;entryPerimeter=0;" edge="1" parent="1" source="ato9lWBI0SY_mpVEOnEu-3" target="ato9lWBI0SY_mpVEOnEu-5">
          <mxGeometry relative="1" as="geometry" />
        </mxCell>
        <mxCell id="ato9lWBI0SY_mpVEOnEu-7" value="RDS&amp;nbsp;&lt;span style=&quot;background-color: initial; font-size: 14px;&quot;&gt;MySQL&lt;/span&gt;" style="sketch=0;points=[[0,0,0],[0.25,0,0],[0.5,0,0],[0.75,0,0],[1,0,0],[0,1,0],[0.25,1,0],[0.5,1,0],[0.75,1,0],[1,1,0],[0,0.25,0],[0,0.5,0],[0,0.75,0],[1,0.25,0],[1,0.5,0],[1,0.75,0]];outlineConnect=0;fontColor=#232F3E;fillColor=#C925D1;strokeColor=#ffffff;dashed=0;verticalLabelPosition=bottom;verticalAlign=top;align=center;html=1;fontSize=14;fontStyle=0;aspect=fixed;shape=mxgraph.aws4.resourceIcon;resIcon=mxgraph.aws4.rds;" vertex="1" parent="1">
          <mxGeometry x="1140" y="320" width="78" height="78" as="geometry" />
        </mxCell>
        <mxCell id="ato9lWBI0SY_mpVEOnEu-9" value="VPC" style="points=[[0,0],[0.25,0],[0.5,0],[0.75,0],[1,0],[1,0.25],[1,0.5],[1,0.75],[1,1],[0.75,1],[0.5,1],[0.25,1],[0,1],[0,0.75],[0,0.5],[0,0.25]];outlineConnect=0;gradientColor=none;html=1;whiteSpace=wrap;fontSize=12;fontStyle=0;container=1;pointerEvents=0;collapsible=0;recursiveResize=0;shape=mxgraph.aws4.group;grIcon=mxgraph.aws4.group_vpc2;strokeColor=#8C4FFF;fillColor=none;verticalAlign=top;align=left;spacingLeft=30;fontColor=#AAB7B8;dashed=0;" vertex="1" parent="1">
          <mxGeometry x="870" y="220" width="400" height="390" as="geometry" />
        </mxCell>
        <mxCell id="ato9lWBI0SY_mpVEOnEu-18" value="" style="rounded=1;whiteSpace=wrap;html=1;fillColor=none;strokeColor=#FF1453;" vertex="1" parent="ato9lWBI0SY_mpVEOnEu-9">
          <mxGeometry x="30" y="30" width="179" height="340" as="geometry" />
        </mxCell>
        <mxCell id="ato9lWBI0SY_mpVEOnEu-19" value="Execution role" style="sketch=0;outlineConnect=0;fontColor=#232F3E;gradientColor=none;fillColor=#DD344C;strokeColor=none;dashed=0;verticalLabelPosition=bottom;verticalAlign=top;align=center;html=1;fontSize=12;fontStyle=0;aspect=fixed;pointerEvents=1;shape=mxgraph.aws4.role;" vertex="1" parent="ato9lWBI0SY_mpVEOnEu-9">
          <mxGeometry x="98.21999999999998" y="230" width="42.55" height="24" as="geometry" />
        </mxCell>
        <mxCell id="ato9lWBI0SY_mpVEOnEu-17" value="&lt;div&gt;&lt;font style=&quot;font-size: 12px;&quot;&gt;R&lt;/font&gt;&lt;span style=&quot;background-color: initial;&quot;&gt;esource-based policy&lt;/span&gt;&lt;/div&gt;" style="sketch=0;outlineConnect=0;fontColor=#232F3E;gradientColor=none;fillColor=#DD344C;strokeColor=none;dashed=0;verticalLabelPosition=bottom;verticalAlign=top;align=center;html=1;fontSize=12;fontStyle=0;aspect=fixed;pointerEvents=1;shape=mxgraph.aws4.permissions;" vertex="1" parent="ato9lWBI0SY_mpVEOnEu-9">
          <mxGeometry x="104.4" y="292" width="30.2" height="38" as="geometry" />
        </mxCell>
        <mxCell id="ato9lWBI0SY_mpVEOnEu-10" value="API Gateway" style="sketch=0;points=[[0,0,0],[0.25,0,0],[0.5,0,0],[0.75,0,0],[1,0,0],[0,1,0],[0.25,1,0],[0.5,1,0],[0.75,1,0],[1,1,0],[0,0.25,0],[0,0.5,0],[0,0.75,0],[1,0.25,0],[1,0.5,0],[1,0.75,0]];outlineConnect=0;fontColor=#232F3E;fillColor=#E7157B;strokeColor=#ffffff;dashed=0;verticalLabelPosition=bottom;verticalAlign=top;align=center;html=1;fontSize=14;fontStyle=0;aspect=fixed;shape=mxgraph.aws4.resourceIcon;resIcon=mxgraph.aws4.api_gateway;" vertex="1" parent="1">
          <mxGeometry x="140" y="320" width="78" height="78" as="geometry" />
        </mxCell>
        <mxCell id="ato9lWBI0SY_mpVEOnEu-12" style="edgeStyle=orthogonalEdgeStyle;rounded=0;orthogonalLoop=1;jettySize=auto;html=1;" edge="1" parent="1" source="ato9lWBI0SY_mpVEOnEu-11" target="ato9lWBI0SY_mpVEOnEu-10">
          <mxGeometry relative="1" as="geometry" />
        </mxCell>
        <mxCell id="ato9lWBI0SY_mpVEOnEu-11" value="&lt;font style=&quot;font-size: 14px;&quot;&gt;User&lt;/font&gt;" style="sketch=0;outlineConnect=0;fontColor=#232F3E;gradientColor=none;fillColor=#232F3D;strokeColor=none;dashed=0;verticalLabelPosition=bottom;verticalAlign=top;align=center;html=1;fontSize=12;fontStyle=0;aspect=fixed;pointerEvents=1;shape=mxgraph.aws4.authenticated_user;" vertex="1" parent="1">
          <mxGeometry x="-60" y="320" width="78" height="78" as="geometry" />
        </mxCell>
        <mxCell id="ato9lWBI0SY_mpVEOnEu-14" value="Using Bedrock Agent to query Amazon RDS MySQL database" style="text;html=1;align=center;verticalAlign=middle;whiteSpace=wrap;rounded=0;fontSize=18;fontStyle=1" vertex="1" parent="1">
          <mxGeometry x="-70" y="120" width="545" height="30" as="geometry" />
        </mxCell>
        <mxCell id="ato9lWBI0SY_mpVEOnEu-20" value="Region" style="points=[[0,0],[0.25,0],[0.5,0],[0.75,0],[1,0],[1,0.25],[1,0.5],[1,0.75],[1,1],[0.75,1],[0.5,1],[0.25,1],[0,1],[0,0.75],[0,0.5],[0,0.25]];outlineConnect=0;gradientColor=none;html=1;whiteSpace=wrap;fontSize=12;fontStyle=0;container=1;pointerEvents=0;collapsible=0;recursiveResize=0;shape=mxgraph.aws4.group;grIcon=mxgraph.aws4.group_region;strokeColor=#00A4A6;fillColor=none;verticalAlign=top;align=left;spacingLeft=30;fontColor=#147EBA;dashed=1;" vertex="1" parent="1">
          <mxGeometry x="80" y="180" width="1220" height="470" as="geometry" />
        </mxCell>
        <mxCell id="ato9lWBI0SY_mpVEOnEu-21" value="OpenAPI&amp;nbsp;&lt;div&gt;Schema&lt;/div&gt;" style="sketch=0;outlineConnect=0;fontColor=#232F3E;gradientColor=none;fillColor=#232F3D;strokeColor=none;dashed=0;verticalLabelPosition=bottom;verticalAlign=top;align=center;html=1;fontSize=12;fontStyle=0;aspect=fixed;pointerEvents=1;shape=mxgraph.aws4.document;" vertex="1" parent="ato9lWBI0SY_mpVEOnEu-20">
          <mxGeometry x="720" y="106.5" width="24.48" height="33.5" as="geometry" />
        </mxCell>
        <mxCell id="EjC6SbWx9mVg9-u-MXKE-1" value="&lt;span style=&quot;background-color: rgb(255, 255, 255);&quot;&gt;Bedrock Agent&lt;/span&gt;" style="sketch=0;points=[[0,0,0],[0.25,0,0],[0.5,0,0],[0.75,0,0],[1,0,0],[0,1,0],[0.25,1,0],[0.5,1,0],[0.75,1,0],[1,1,0],[0,0.25,0],[0,0.5,0],[0,0.75,0],[1,0.25,0],[1,0.5,0],[1,0.75,0]];outlineConnect=0;fontColor=#232F3E;fillColor=#01A88D;strokeColor=#ffffff;dashed=0;verticalLabelPosition=bottom;verticalAlign=top;align=center;html=1;fontSize=14;fontStyle=0;aspect=fixed;shape=mxgraph.aws4.resourceIcon;resIcon=mxgraph.aws4.bedrock;" parent="ato9lWBI0SY_mpVEOnEu-20" vertex="1">
          <mxGeometry x="460" y="140" width="78" height="78" as="geometry" />
        </mxCell>
        <mxCell id="ato9lWBI0SY_mpVEOnEu-3" value="Action Group" style="sketch=0;outlineConnect=0;fontColor=#232F3E;gradientColor=none;fillColor=#232F3D;strokeColor=none;dashed=0;verticalLabelPosition=bottom;verticalAlign=top;align=center;html=1;fontSize=14;fontStyle=0;aspect=fixed;pointerEvents=1;shape=mxgraph.aws4.all_products;" vertex="1" parent="ato9lWBI0SY_mpVEOnEu-20">
          <mxGeometry x="620" y="140" width="78" height="78" as="geometry" />
        </mxCell>
        <mxCell id="ato9lWBI0SY_mpVEOnEu-4" style="edgeStyle=orthogonalEdgeStyle;rounded=0;orthogonalLoop=1;jettySize=auto;html=1;" edge="1" parent="ato9lWBI0SY_mpVEOnEu-20" source="EjC6SbWx9mVg9-u-MXKE-1" target="ato9lWBI0SY_mpVEOnEu-3">
          <mxGeometry relative="1" as="geometry" />
        </mxCell>
        <mxCell id="ato9lWBI0SY_mpVEOnEu-22" value="&lt;b&gt;https://&lt;font color=&quot;#ff1453&quot;&gt;&amp;lt;api_endpoint&amp;gt;&lt;/font&gt;/query?prompt=&quot;&lt;font color=&quot;#ff1453&quot;&gt;&amp;lt;user_prompt&amp;gt;&lt;/font&gt;&quot;&lt;/b&gt;" style="text;html=1;align=center;verticalAlign=middle;whiteSpace=wrap;rounded=0;fillColor=#fff2cc;strokeColor=#d6b656;" vertex="1" parent="1">
          <mxGeometry x="-60" y="270" width="381" height="30" as="geometry" />
        </mxCell>
      </root>
    </mxGraphModel>
  </diagram>
</mxfile>
